<?xml version="1.0" encoding="UTF-8" standalone="no"?>
<!DOCTYPE svg PUBLIC "-//W3C//DTD SVG 1.1//EN" "http://www.w3.org/Graphics/SVG/1.1/DTD/svg11.dtd">
<svg width="100%" height="100%" viewBox="0 0 50 50" version="1.1" xmlns="http://www.w3.org/2000/svg" xmlns:xlink="http://www.w3.org/1999/xlink" xml:space="preserve" xmlns:serif="http://www.serif.com/" style="fill-rule:evenodd;clip-rule:evenodd;stroke-linecap:round;stroke-linejoin:round;stroke-miterlimit:1.5;">
    <g transform="matrix(1,0,0,1,-78.2322,-100)">
        <g transform="matrix(0.667409,0,0,0.624839,44.7394,46.8951)">
            <rect x="50.183" y="84.99" width="74.917" height="80.021" style="fill:rgb(160,135,119);"/>
        </g>
        <g>
            <g transform="matrix(1,0,0,1,0,4.33014)">
                <rect x="78.232" y="116.34" width="50" height="8.66" style="fill:rgb(223,187,162);"/>
            </g>
            <path d="M78.232,125L128.232,125" style="fill:none;stroke:black;stroke-width:1px;"/>
        </g>
        <g>
            <g transform="matrix(1,-6.16298e-33,1.2326e-32,1.36064,-0.803125,-44.9413)">
                <rect x="84.737" y="107.889" width="9.649" height="12.781" style="fill:rgb(235,235,235);"/>
            </g>
            <g transform="matrix(3.87273e-17,-0.930199,0.930199,3.87273e-17,-7.76982,196.136)">
                <text x="83.934px" y="107.63px" style="font-family:'Arial-BoldMT', 'Arial', sans-serif;font-weight:700;font-size:1.99px;">WIDGET #192812</text>
            </g>
            <g transform="matrix(1,0,0,1,0.8384,0.11776)">
                <rect x="83.934" y="113.248" width="4.824" height="0.438"/>
            </g>
            <g transform="matrix(1,0,0,1,0.89312,-3.02592)">
                <rect x="83.934" y="113.248" width="4.824" height="0.438"/>
            </g>
            <g transform="matrix(1,0,0,1,1.30432,-6.4944)">
                <rect x="83.934" y="113.248" width="4.824" height="0.438"/>
            </g>
            <g transform="matrix(1,0,0,1,1.32416,-8.07584)">
                <rect x="83.934" y="113.248" width="4.824" height="0.438"/>
            </g>
            <g transform="matrix(1,0,0,1,1.16096,-4.5056)">
                <rect x="83.934" y="113.248" width="4.824" height="0.438"/>
            </g>
            <g transform="matrix(1,0,0,1,1.09024,-5.20448)">
                <rect x="83.934" y="113.248" width="4.824" height="0.438"/>
            </g>
            <g transform="matrix(0.740854,0,0,0.58368,23.7665,45.0393)">
                <rect x="83.934" y="113.248" width="4.824" height="0.438"/>
            </g>
            <g transform="matrix(0.90316,0,0,0.60267,9.32719,43.3448)">
                <rect x="83.934" y="113.248" width="4.824" height="0.438"/>
            </g>
            <g transform="matrix(0.740854,0,0,1.02483,22.8091,-6.69331)">
                <rect x="83.934" y="113.248" width="4.824" height="0.438"/>
            </g>
            <g transform="matrix(0.456834,0,0,0.991235,48.0131,-6.23338)">
                <rect x="83.934" y="113.248" width="4.824" height="0.438"/>
            </g>
            <g transform="matrix(0.283915,0,0,1.17821,62.9924,-26.1083)">
                <rect x="83.934" y="113.248" width="4.824" height="0.438"/>
            </g>
            <g transform="matrix(1,0,0,1,0.8384,-1.12032)">
                <rect x="83.934" y="113.248" width="4.824" height="0.438"/>
            </g>
        </g>
    </g>
</svg>
